<svg width="24" height="24" viewBox="0 0 24 24" fill="none" xmlns="http://www.w3.org/2000/svg">
<path fill-rule="evenodd" clip-rule="evenodd" d="M9.47919 4.66683C9.47919 3.27461 10.6078 2.146 12 2.146C13.3923 2.146 14.5209 3.27461 14.5209 4.66683C14.5209 6.05904 13.3923 7.18766 12 7.18766C10.6078 7.18766 9.47919 6.05904 9.47919 4.66683Z" fill="#D874B9"/>
<path d="M8.53781 11.6095L6.54379 10.9448C5.9702 10.7536 5.58331 10.2168 5.58331 9.61224C5.58331 8.71797 6.40788 8.05137 7.28231 8.23876L9.02175 8.61149C9.11847 8.63222 9.16684 8.64258 9.21479 8.65249C11.0521 9.03254 12.9478 9.03254 14.7852 8.65249C14.8331 8.64258 14.8815 8.63222 14.9782 8.61149L16.7176 8.23875C17.5921 8.05137 18.4166 8.71797 18.4166 9.61224C18.4166 10.2168 18.0297 10.7536 17.4562 10.9448L15.4621 11.6095C15.2211 11.6898 15.1007 11.73 15.01 11.786C14.7015 11.9764 14.5342 12.3308 14.5833 12.6902C14.5978 12.7957 14.6434 12.9142 14.7346 13.1513L15.8775 16.1228C16.2177 17.0073 15.5647 17.958 14.617 17.958C14.1324 17.958 13.6849 17.6984 13.4445 17.2775L12 14.7496L10.5555 17.2775C10.3151 17.6984 9.86757 17.958 9.38295 17.958C8.43523 17.958 7.7823 17.0073 8.12251 16.1228L9.2654 13.1513C9.35658 12.9142 9.40217 12.7957 9.4166 12.6902C9.46573 12.3308 9.29844 11.9764 8.98988 11.786C8.89927 11.73 8.77879 11.6898 8.53781 11.6095Z" fill="#D874B9"/>
<path d="M12 21.1666C17.0625 21.1666 21.1666 19.3198 21.1666 17.0416C21.1666 15.4633 19.1966 14.092 16.3028 13.3984L17.1608 15.6292C17.8474 17.4144 16.5297 19.3331 14.617 19.3331C13.639 19.3331 12.7359 18.8091 12.2507 17.9599L12 17.5211L11.7493 17.9599C11.2641 18.8091 10.361 19.3331 9.38295 19.3331C7.47028 19.3331 6.15255 17.4144 6.83916 15.6292L7.69717 13.3984C4.80329 14.092 2.83331 15.4633 2.83331 17.0416C2.83331 19.3198 6.93737 21.1666 12 21.1666Z" fill="#D874B9"/>
</svg>
