<svg width="48" height="48" viewBox="0 0 48 48" fill="none" xmlns="http://www.w3.org/2000/svg">
<rect width="48" height="48" rx="24" fill="#F1F1F1" fill-opacity="0.4"/>
<path d="M23.0035 12.5262C23.4469 11.7309 23.6685 11.3333 24 11.3333C24.3314 11.3333 24.5531 11.7309 24.9964 12.5262L25.1111 12.7319C25.237 12.9579 25.3 13.0709 25.3982 13.1455C25.4965 13.22 25.6187 13.2477 25.8634 13.3031L26.0861 13.3535C26.947 13.5483 27.3775 13.6456 27.4799 13.975C27.5824 14.3043 27.2888 14.6474 26.702 15.3337L26.5501 15.5113C26.3834 15.7063 26.3 15.8038 26.2624 15.9244C26.2249 16.0451 26.2375 16.1752 26.2627 16.4354L26.2857 16.6723C26.3744 17.588 26.4188 18.0458 26.1507 18.2493C25.8825 18.4529 25.4796 18.2673 24.6735 17.8962L24.465 17.8001C24.2359 17.6947 24.1214 17.6419 24 17.6419C23.8785 17.6419 23.7641 17.6947 23.535 17.8001L23.3265 17.8962C22.5204 18.2673 22.1175 18.4529 21.8492 18.2493C21.5812 18.0458 21.6255 17.588 21.7143 16.6723L21.7372 16.4354C21.7624 16.1752 21.775 16.0451 21.7376 15.9244C21.7 15.8038 21.6166 15.7063 21.4499 15.5113L21.298 15.3337C20.7111 14.6474 20.4177 14.3043 20.5201 13.975C20.6225 13.6456 21.0529 13.5483 21.9139 13.3535L22.1366 13.3031C22.3812 13.2477 22.5035 13.22 22.6017 13.1455C22.7 13.0709 22.763 12.9579 22.8889 12.7319L23.0035 12.5262Z" fill="#D874B9"/>
<path opacity="0.5" d="M25.1666 20.6667H22.8333C21.1834 20.6667 20.3584 20.6667 19.8459 21.1793C19.3333 21.6919 19.3333 22.5168 19.3333 24.1667V34.6667H28.6666V31.1667V24.1667C28.6666 22.5168 28.6666 21.6919 28.1541 21.1793C27.6415 20.6667 26.8165 20.6667 25.1666 20.6667Z" fill="#D874B9"/>
<g opacity="0.5">
<path d="M18.8207 31.6793C18.3082 31.1667 17.4832 31.1667 15.8333 31.1667C14.1834 31.1667 13.3584 31.1667 12.8459 31.6793C12.3333 32.1919 12.3333 33.0168 12.3333 34.6667H19.3333C19.3333 33.0168 19.3333 32.1919 18.8207 31.6793Z" fill="#D874B9"/>
<path d="M28.6666 31.1667V34.6667H35.6666V31.1667C35.6666 29.5168 35.6666 28.6919 35.1541 28.1793C34.6415 27.6667 33.8165 27.6667 32.1666 27.6667C30.5167 27.6667 29.6918 27.6667 29.1791 28.1793C28.6666 28.6919 28.6666 29.5168 28.6666 31.1667Z" fill="#D874B9"/>
</g>
</svg>
