<svg width="40" height="40" viewBox="0 0 40 40" fill="none" xmlns="http://www.w3.org/2000/svg">
<g clip-path="url(#clip0_2639_1939)">
<rect width="40" height="40" rx="20" fill="#DE8CC5"/>
<path d="M35.5728 38.1733C30.9897 39.157 29.8598 36.681 29.8278 33.662C29.8269 33.5789 29.8708 33.5015 29.9422 33.4589L33.7409 31.1946C33.8698 31.1177 34.0364 31.1794 34.087 31.3207C34.574 32.6795 35.0697 33.2963 37.7635 33.1178C40.0592 32.9657 40.4176 34.3653 40.4465 35.0966C40.4465 35.781 40.2238 37.175 35.5728 38.1733Z" fill="#FFBFFB"/>
<path d="M29.8271 33.5276C29.8271 36.6069 30.9218 39.1715 35.5728 38.1733C40.2238 37.175 40.4465 35.781 40.4465 35.0966C40.4176 34.3653 40.0592 32.9657 37.7635 33.1178C34.894 33.308 34.5187 32.5956 33.9912 31.0453" stroke="black"/>
<path d="M-0.528015 39.158C0.411521 40.1885 1.87563 40.0126 2.6899 39.158M2.6899 39.158C0.630746 37.7838 -0.0034408 34.1056 1.55462 33.9676C3.01527 33.9676 4.06788 37.8341 2.6899 39.158ZM2.6899 39.158C3.62943 40.1885 5.09354 40.0126 5.90781 39.158M5.90781 39.158C3.84866 37.7838 3.21447 34.1056 4.77253 33.9676C6.23318 33.9676 7.28579 37.8341 5.90781 39.158Z" stroke="black" stroke-width="0.707865" stroke-linecap="round"/>
<path d="M28.1566 50.6023C31.0377 50.6023 31.3788 46.3059 31.1893 44.1577C31.0357 40.2392 25.3816 39.1336 25.2921 44.8797C25.2839 45.4047 25.2599 45.9349 25.2402 46.4596C25.1755 48.1841 25.6848 50.6023 28.1566 50.6023Z" fill="#FFBFFB" stroke="black" stroke-width="0.707865"/>
<path d="M12.6949 50.5227C15.576 50.5227 15.9172 46.2263 15.7277 44.0781C15.5741 40.1596 9.92 39.054 9.8305 44.8001C9.82232 45.3251 9.79828 45.8553 9.77858 46.38C9.71383 48.1045 10.2231 50.5227 12.6949 50.5227Z" fill="#FFBFFB" stroke="black" stroke-width="0.707865"/>
<path d="M31.7516 43.5916C24.4366 47.9176 14.916 45.6916 8.62144 42.9184C6.17637 41.8411 4.86073 39.2661 5.0158 36.5987L5.71141 24.6344C5.71141 15.7257 11.3978 10.6079 21.0647 10.6079C30.3525 10.6079 34.333 17.4316 34.333 21.2225V38.4857C34.333 40.5276 33.5092 42.5522 31.7516 43.5916Z" fill="#FFBFFB" stroke="black"/>
<path d="M23.7754 26.9046C21.4549 26.9046 19.6911 25.2719 19.6911 23.3933C19.6911 21.5147 21.4549 19.8821 23.7754 19.8821C26.0959 19.8821 27.8596 21.5147 27.8596 23.3933C27.8596 25.2719 26.0959 26.9046 23.7754 26.9046Z" fill="#FFBFFB" stroke="black"/>
<path d="M23.7573 23.5645C23.6899 24.378 23.4097 25.0189 22.8457 24.9722C22.2818 24.9255 22.1108 24.2473 22.1781 23.4337C22.2455 22.6202 22.5257 21.9794 23.0897 22.0261C23.6536 22.0728 23.8246 22.7509 23.7573 23.5645Z" fill="black"/>
<path d="M25.8205 23.5019C25.7727 24.0798 25.5736 24.535 25.173 24.5019C24.7724 24.4687 24.6509 23.9869 24.6987 23.409C24.7466 22.8311 24.9456 22.3758 25.3463 22.409C25.7469 22.4422 25.8684 22.9239 25.8205 23.5019Z" fill="black"/>
<circle opacity="0.4" cx="13.2933" cy="23.118" r="3.60139" fill="#E7AAD4"/>
<path opacity="0.4" d="M34.333 23.3076C34.333 25.2966 33.8579 27.0985 31.8689 27.0985C29.8799 27.0985 28.2675 25.4861 28.2675 23.4971C28.2675 21.5081 29.8799 19.8958 31.8689 19.8958C33.8579 19.8958 34.333 21.3186 34.333 23.3076Z" fill="#E7AAD4"/>
<path d="M7.9683 13.4092C7.21238 14.9296 5.3993 17.2741 4.19431 14.4887C2.68809 11.0069 3.38403 9.27677 6.3498 10.1296C8.72241 10.8119 10.1999 12.8844 10.6421 13.8354" stroke="black"/>
<path d="M31.6436 12.9938C32.591 14.5011 34.6059 16.9383 35.0866 14.6288C35.6875 11.7419 36.7521 10.8617 35.3702 9.91292C33.9882 8.9641 30.6234 9.95337 29.6676 13.1337" stroke="black"/>
<path d="M17.4042 38.1733C12.821 39.157 11.6912 36.681 11.6592 33.662C11.6583 33.5789 11.7022 33.5015 11.7736 33.4589L15.5722 31.1946C15.7011 31.1177 15.8677 31.1794 15.9183 31.3207C16.4053 32.6795 16.901 33.2963 19.5949 33.1178C21.8905 32.9657 22.2489 34.3653 22.2778 35.0966C22.2778 35.781 22.0551 37.175 17.4042 38.1733Z" fill="#FFBFFB"/>
<path d="M11.6511 33.5276C11.6511 36.6069 12.7458 39.1715 17.3968 38.1733C22.0478 37.175 22.2705 35.781 22.2705 35.0966C22.2416 34.3653 21.8831 32.9657 19.5875 33.1178C16.718 33.308 16.3427 32.5956 15.8152 31.0453" stroke="black"/>
<circle cx="17.1685" cy="21.0339" r="1.41573" fill="black"/>
<circle cx="30.3821" cy="21.0339" r="1.41573" fill="black"/>
<circle cx="17.1686" cy="20.562" r="0.47191" fill="white"/>
<circle cx="30.382" cy="20.562" r="0.47191" fill="white"/>
</g>
<defs>
<clipPath id="clip0_2639_1939">
<rect width="40" height="40" rx="20" fill="white"/>
</clipPath>
</defs>
</svg>
