<svg width="48" height="48" viewBox="0 0 48 48" fill="none" xmlns="http://www.w3.org/2000/svg">
<rect width="48" height="48" rx="24" fill="#F1F1F1" fill-opacity="0.4"/>
<path d="M24 21.6666C26.5773 21.6666 28.6666 19.5772 28.6666 16.9999C28.6666 14.4226 26.5773 12.3333 24 12.3333C21.4227 12.3333 19.3333 14.4226 19.3333 16.9999C19.3333 19.5772 21.4227 21.6666 24 21.6666Z" fill="#D874B9"/>
<path opacity="0.5" fill-rule="evenodd" clip-rule="evenodd" d="M29.25 35.6667C27.3251 35.6667 26.3626 35.6667 25.7647 35.0686C25.1667 34.4707 25.1667 33.5082 25.1667 31.5833C25.1667 29.6584 25.1667 28.6959 25.7647 28.098C26.3626 27.5 27.3251 27.5 29.25 27.5C31.1749 27.5 32.1374 27.5 32.7353 28.098C33.3334 28.6959 33.3334 29.6584 33.3334 31.5833C33.3334 33.5082 33.3334 34.4707 32.7353 35.0686C32.1374 35.6667 31.1749 35.6667 29.25 35.6667ZM29.9305 29.7685C29.9305 29.3927 29.6259 29.0879 29.25 29.0879C28.8741 29.0879 28.5695 29.3927 28.5695 29.7685V30.9028H27.4352C27.0594 30.9028 26.7546 31.2074 26.7546 31.5833C26.7546 31.9592 27.0594 32.2638 27.4352 32.2638H28.5695V33.3982C28.5695 33.774 28.8741 34.0787 29.25 34.0787C29.6259 34.0787 29.9305 33.774 29.9305 33.3982V32.2638H31.0649C31.4407 32.2638 31.7454 31.9592 31.7454 31.5833C31.7454 31.2074 31.4407 30.9028 31.0649 30.9028H29.9305V29.7685Z" fill="#D874B9"/>
<path d="M27.9838 25.7587C26.8053 25.3816 25.4466 25.1667 24 25.1667C19.4897 25.1667 15.8333 27.2561 15.8333 29.8334C15.8333 32.3308 19.2662 34.3699 23.5824 34.4941C23.5508 34.3468 23.5263 34.2005 23.5071 34.0569C23.4164 33.3829 23.4165 32.5593 23.4166 31.6837V31.4831C23.4165 30.6075 23.4164 29.7839 23.5071 29.11C23.6079 28.3599 23.8489 27.5389 24.5272 26.8606C25.2056 26.1823 26.0265 25.9413 26.7765 25.8404C27.1405 25.7915 27.548 25.769 27.9838 25.7587Z" fill="#D874B9"/>
</svg>
