<svg width="48" height="48" viewBox="0 0 48 48" fill="none" xmlns="http://www.w3.org/2000/svg">
<rect width="48" height="48" rx="24" fill="#F1F1F1" fill-opacity="0.4"/>
<path fill-rule="evenodd" clip-rule="evenodd" d="M26.3493 29.8334L26.3425 32.1701C26.3409 32.7187 26.3401 32.9929 26.1689 33.1632C25.9978 33.3334 25.7228 33.3334 25.1729 33.3334H21.6608C17.2501 33.3334 15.0447 33.3334 13.6745 31.9665C12.731 31.0255 12.4372 29.6894 12.3457 27.5123C12.3275 27.0807 12.3184 26.8647 12.399 26.7207C12.4797 26.5767 12.8015 26.397 13.4452 26.0374C14.1601 25.6382 14.6434 24.8754 14.6434 24.0001C14.6434 23.1247 14.1601 22.362 13.4452 21.9627C12.8015 21.6032 12.4797 21.4235 12.399 21.2794C12.3184 21.1354 12.3275 20.9195 12.3457 20.4878C12.4372 18.3107 12.731 16.9747 13.6745 16.0336C15.0447 14.6667 17.2501 14.6667 21.6608 14.6667H25.756C26.0783 14.6667 26.3398 14.9269 26.3408 15.2484L26.3493 18.1667C26.3493 18.8111 26.8729 19.3334 27.5189 19.3334V21.6667C26.8729 21.6667 26.3493 22.1891 26.3493 22.8334V25.1667C26.3493 25.8111 26.8729 26.3334 27.5189 26.3334V28.6667C26.8729 28.6667 26.3493 29.1891 26.3493 29.8334Z" fill="#D874B9"/>
<path opacity="0.5" d="M27.5193 28.6664C28.1653 28.6664 28.6889 29.1887 28.6889 29.833V32.1389C28.6889 32.7007 28.6889 32.9816 28.8691 33.1538C29.0492 33.3261 29.3248 33.3145 29.876 33.2911C32.0494 33.1991 33.3848 32.9051 34.3259 31.9662C35.2694 31.0251 35.5633 29.6891 35.6547 27.5121C35.6729 27.0803 35.682 26.8643 35.6014 26.7204C35.5208 26.5763 35.1989 26.3966 34.5552 26.0372C33.8403 25.6379 33.357 24.875 33.357 23.9997C33.357 23.1243 33.8403 22.3616 34.5552 21.9623C35.1989 21.6028 35.5208 21.4231 35.6014 21.2791C35.682 21.1351 35.6729 20.9192 35.6547 20.4874C35.5633 18.3103 35.2694 16.9743 34.3259 16.0332C33.3019 15.0118 31.8115 14.7537 29.2829 14.6884C28.9567 14.68 28.6889 14.9431 28.6889 15.2686V18.1664C28.6889 18.8107 28.1653 19.333 27.5193 19.333V21.6664C28.1653 21.6664 28.6889 22.1887 28.6889 22.833V25.1664C28.6889 25.8107 28.1653 26.333 27.5193 26.333V28.6664Z" fill="#D874B9"/>
</svg>
