<svg width="24" height="24" viewBox="0 0 24 24" fill="none" xmlns="http://www.w3.org/2000/svg">
<path fill-rule="evenodd" clip-rule="evenodd" d="M14.0138 16.9998L14.008 19.0027C14.0066 19.4729 14.0059 19.7079 13.8592 19.8539C13.7125 19.9998 13.4768 19.9998 13.0055 19.9998H9.99508C6.21444 19.9998 4.32413 19.9998 3.14964 18.8282C2.34097 18.0216 2.08909 16.8764 2.01064 15.0103C1.99508 14.6403 1.9873 14.4552 2.0564 14.3318C2.12551 14.2083 2.40139 14.0543 2.95314 13.7461C3.56592 13.4039 3.98013 12.7501 3.98013 11.9998C3.98013 11.2495 3.56592 10.5957 2.95314 10.2535C2.40139 9.9453 2.12551 9.79123 2.0564 9.66778C1.9873 9.54434 1.99508 9.35929 2.01064 8.98922C2.08909 7.12315 2.34097 5.97799 3.14964 5.17133C4.32413 3.99976 6.21445 3.99976 9.99508 3.99976H13.5053C13.7815 3.99976 14.0057 4.22274 14.0065 4.49831L14.0138 6.99976C14.0138 7.55204 14.4626 7.99976 15.0163 7.99976V9.99976C14.4626 9.99976 14.0138 10.4475 14.0138 10.9998V12.9998C14.0138 13.5521 14.4626 13.9998 15.0163 13.9998V15.9998C14.4626 15.9998 14.0138 16.4475 14.0138 16.9998Z" fill="#D874B9"/>
<path opacity="0.5" d="M15.0167 16C15.5704 16 16.0192 16.4477 16.0192 17V18.9765C16.0192 19.458 16.0192 19.6988 16.1736 19.8464C16.328 19.9941 16.5642 19.9841 17.0367 19.9641C18.8996 19.8852 20.0442 19.6332 20.8509 18.8284C21.6596 18.0218 21.9115 16.8766 21.9899 15.0106C22.0055 14.6405 22.0133 14.4554 21.9442 14.332C21.8751 14.2085 21.5992 14.0545 21.0474 13.7464C20.4347 13.4042 20.0204 12.7503 20.0204 12C20.0204 11.2497 20.4347 10.5959 21.0474 10.2537C21.5992 9.94561 21.8751 9.79155 21.9442 9.6681C22.0133 9.54465 22.0055 9.35961 21.9899 8.98954C21.9115 7.12346 21.6596 5.9783 20.8509 5.17164C19.9732 4.29611 18.6957 4.07488 16.5283 4.01897C16.2487 4.01176 16.0192 4.23725 16.0192 4.51625V7.00007C16.0192 7.55236 15.5704 8.00007 15.0167 8.00007V10.0001C15.5704 10.0001 16.0192 10.4477 16.0192 11V13C16.0192 13.5523 15.5704 14 15.0167 14V16Z" fill="#D874B9"/>
</svg>
