<svg width="32" height="32" viewBox="0 0 32 32" fill="none" xmlns="http://www.w3.org/2000/svg">
<rect width="32" height="32" fill="#1068BF"/>
<path d="M15.7114 10.3046C16.8987 10.3046 17.8935 9.27117 17.8935 8.04392C17.8935 6.78438 16.9308 5.7832 15.7114 5.7832C14.5241 5.7832 13.5293 6.81667 13.5293 8.04392C13.5614 9.27117 14.5241 10.3046 15.7114 10.3046Z" fill="white"/>
<path d="M28.9001 17.0207L27.0389 15.1476C26.8143 15.5028 26.5255 15.7935 26.2046 16.0518C25.627 13.7588 23.862 11.9503 21.6157 11.272C21.1344 11.1106 20.6209 11.046 20.0754 11.0137C20.0433 11.0137 20.0433 11.0137 20.0112 11.0137C19.9471 11.0137 19.8829 11.0137 19.7866 11.0137C18.2784 11.0137 16.8343 11.6273 15.7754 12.6931L13.7858 14.6954L12.791 15.6643L14.6522 17.5375L17.6366 14.5339C18.2142 13.9526 19.0164 13.6296 19.8508 13.6296C19.9791 13.6296 20.1075 13.6296 20.2359 13.6619C20.3 13.6619 20.3963 13.6942 20.4605 13.6942C22.0971 14.0172 23.3807 15.309 23.7016 16.9884C23.6695 16.9884 23.6053 16.9884 23.5732 16.9884C22.8672 16.9884 22.1933 16.7946 21.6157 16.4717C21.4874 16.4071 21.359 16.3102 21.2307 16.2456C21.1986 16.2133 21.1665 16.2133 21.1344 16.181C20.9098 15.9873 20.6851 15.7935 20.4926 15.5674C20.4605 15.5351 20.4605 15.5028 20.4284 15.4705C20.3321 15.3736 20.268 15.2444 20.1717 15.1476C20.0433 14.9538 19.915 14.76 19.8187 14.5339L17.8933 16.4717C18.0217 16.6655 18.15 16.8592 18.2784 17.0207C18.4067 17.1822 18.5351 17.3437 18.6635 17.4729C18.6956 17.5052 18.6956 17.5052 18.7276 17.5375C18.856 17.6666 19.0165 17.7958 19.1448 17.925C19.1769 17.9573 19.209 17.9573 19.209 17.9896C19.3694 18.1188 19.4978 18.248 19.6582 18.3449C19.6582 18.3449 19.6582 18.3449 19.6903 18.3772C20.7172 19.12 21.9687 19.5398 23.3165 19.6044C23.0277 20.1534 22.6426 20.6056 22.1613 20.9931C22.1292 21.0254 22.1292 21.0254 22.0971 21.0577C22.0329 21.1223 21.9366 21.1546 21.8724 21.2192C21.8404 21.2192 21.8404 21.2515 21.8083 21.2515C21.712 21.3161 21.6157 21.3484 21.5515 21.413C21.5195 21.413 21.5195 21.4453 21.4874 21.4453C21.3911 21.5099 21.2948 21.5422 21.1665 21.5745C21.1665 21.5745 21.1665 21.5745 21.1344 21.5745C20.8777 21.6713 20.5889 21.7682 20.3 21.8005C20.2038 21.8005 20.1075 21.8328 20.0112 21.8328C19.8829 21.8328 19.7866 21.8651 19.6582 21.8651C19.562 21.8651 19.4657 21.8651 19.4015 21.8651C19.3053 21.8651 19.1769 21.8328 19.0806 21.8328C18.7276 21.7682 18.4067 21.7036 18.1179 21.5745L16.1925 23.5122C16.5455 23.7383 16.9306 23.9321 17.3157 24.0612C17.7008 24.1904 18.0858 24.3196 18.4709 24.3842H18.503C18.6635 24.4165 18.8239 24.4488 18.9844 24.4488H19.0164H19.0485C19.2411 24.4811 19.4657 24.4811 19.6582 24.4811C20.0754 24.4811 20.5247 24.4488 20.9098 24.3519C20.9098 24.3519 20.9098 24.3519 20.9418 24.3519C21.1344 24.3196 21.3269 24.255 21.5195 24.2227H21.5515C21.8404 24.1258 22.1292 24.0289 22.3859 23.9321C22.4822 23.8998 22.5463 23.8675 22.6426 23.8352C22.6426 23.8352 22.6426 23.8352 22.6747 23.8352C24.5038 22.9309 25.8516 21.1869 26.2688 19.12C27.2956 18.6032 28.1941 17.925 28.9001 17.0207Z" fill="white"/>
<path d="M18.3104 19.7992L16.4492 17.9261L13.4649 20.9296C12.8872 21.5109 12.085 21.8339 11.2506 21.8339C11.1223 21.8339 10.9939 21.8339 10.8656 21.8016C10.8014 21.8016 10.7051 21.7693 10.6409 21.7693C9.00436 21.4463 7.72076 20.1545 7.39987 18.4751C7.43196 18.4751 7.49614 18.4751 7.52823 18.4751C8.2342 18.4751 8.90809 18.6689 9.48571 18.9918C9.61407 19.0564 9.74242 19.1533 9.87078 19.2179C9.90287 19.2502 9.93496 19.2502 9.96705 19.2825C10.1917 19.4763 10.4163 19.67 10.6089 19.8961C10.6409 19.9284 10.6409 19.9607 10.673 19.993C10.7693 20.0899 10.8335 20.2191 10.9298 20.316C11.0581 20.5097 11.1865 20.7035 11.2827 20.9296L13.2081 18.9918C13.0798 18.798 12.9514 18.6043 12.8231 18.4428C12.6947 18.2813 12.5663 18.1198 12.438 17.9906C12.4059 17.9584 12.4059 17.9584 12.3738 17.9261C12.2454 17.7969 12.085 17.6677 11.9566 17.5385C11.9245 17.5062 11.8924 17.5062 11.8924 17.4739C11.732 17.3447 11.6036 17.2155 11.4432 17.1187C11.4432 17.1187 11.4432 17.1187 11.4111 17.0864C10.3842 16.3436 9.13272 15.9237 7.78494 15.8591C8.07375 15.3101 8.45883 14.8579 8.94018 14.4704C8.97227 14.4381 8.97227 14.4381 9.00436 14.4058C9.06854 14.3412 9.16481 14.3089 9.22899 14.2443C9.26108 14.2443 9.26108 14.212 9.29317 14.212C9.38944 14.1474 9.48571 14.1151 9.54989 14.0505C9.58198 14.0505 9.58198 14.0182 9.61407 14.0182C9.71034 13.9537 9.80661 13.9214 9.93497 13.8891C9.93497 13.8891 9.93496 13.8891 9.96705 13.8891C10.2238 13.7922 10.5126 13.6953 10.8014 13.663C10.8977 13.663 10.9939 13.6307 11.0902 13.6307C11.2186 13.6307 11.3148 13.5984 11.4432 13.5984C11.5395 13.5984 11.6357 13.5984 11.6999 13.5984C11.7962 13.5984 11.9245 13.6307 12.0208 13.6307C12.3417 13.6953 12.6947 13.7599 12.9835 13.8891L14.9089 11.9513C14.5559 11.7252 14.1708 11.5315 13.7857 11.4023C13.4007 11.2731 13.0156 11.1439 12.6305 11.0793H12.5984C12.438 11.047 12.2775 11.0147 12.1171 11.0147H12.085H12.0529C11.8604 10.9824 11.6357 10.9824 11.4432 10.9824C11.026 10.9824 10.5768 11.0147 10.1917 11.1116C10.1917 11.1116 10.1917 11.1116 10.1596 11.1116C9.96705 11.1439 9.77451 11.2085 9.58197 11.2408H9.54989C9.26108 11.3377 8.97227 11.4346 8.71555 11.5315C8.61928 11.5637 8.5551 11.596 8.45883 11.6283C8.45883 11.6283 8.45883 11.6283 8.42674 11.6283C6.59762 12.5326 5.24984 14.2766 4.83268 16.3436C3.8058 16.7957 2.90729 17.5062 2.2334 18.3782L4.09461 20.2514C4.31924 19.8961 4.60805 19.6054 4.92894 19.3471C5.50656 21.6401 7.27151 23.4487 9.5178 24.1269C9.99914 24.2884 10.5126 24.353 11.0581 24.3852C11.0902 24.3852 11.0902 24.3852 11.1223 24.3852C11.1865 24.3852 11.2506 24.3852 11.3469 24.3852C12.8551 24.3852 14.2992 23.7716 15.3582 22.7059L17.3477 20.7035L18.3104 19.7992Z" fill="white"/>
</svg>
